<svg width="494" height="494" viewBox="0 0 494 494" fill="none" xmlns="http://www.w3.org/2000/svg">
<path d="M149.048 2.82761C149.452 2.82761 149.856 2.42369 149.856 2.01976C149.856 1.61584 149.452 1.21191 149.048 1.21191C148.644 1.21191 148.24 1.61584 148.24 2.01976C148.24 2.42369 148.644 2.82761 149.048 2.82761Z" fill="url(#paint0_linear_1423_1715)"/>
<path d="M197.922 4.03962C198.73 4.03962 199.538 3.23177 199.538 2.42392C199.538 1.61607 198.73 0.404297 197.922 0.404297C197.115 0.404297 196.307 1.21215 196.307 2.02C196.307 2.82785 197.115 4.03962 197.922 4.03962Z" fill="url(#paint1_linear_1423_1715)"/>
<path d="M246.799 4.03925C247.914 4.03925 248.819 3.13503 248.819 2.01962C248.819 0.904216 247.914 0 246.799 0C245.684 0 244.779 0.904216 244.779 2.01962C244.779 3.13503 245.684 4.03925 246.799 4.03925Z" fill="url(#paint2_linear_1423_1715)"/>
<path d="M295.672 3.63569C296.565 3.63569 297.288 2.91232 297.288 2.02C297.288 1.12767 296.565 0.404297 295.672 0.404297C294.78 0.404297 294.057 1.12767 294.057 2.02C294.057 2.91232 294.78 3.63569 295.672 3.63569Z" fill="url(#paint3_linear_1423_1715)"/>
<path d="M344.548 3.23093C344.952 3.23093 345.356 2.82701 345.356 2.42308C345.356 2.01916 344.952 1.61523 344.548 1.61523C344.144 1.61523 343.74 2.01916 343.74 2.42308C343.74 2.82701 344.144 3.23093 344.548 3.23093Z" fill="url(#paint4_linear_1423_1715)"/>
<path d="M51.299 51.2985C51.703 50.8945 51.299 50.8945 51.299 50.8945C50.8951 50.8945 50.8951 50.8945 51.299 51.2985C50.8951 51.2985 50.8951 51.2985 51.299 51.2985Z" fill="url(#paint5_linear_1423_1715)"/>
<path d="M100.174 53.3185C101.289 53.3185 102.194 52.4143 102.194 51.2989C102.194 50.1835 101.289 49.2793 100.174 49.2793C99.0585 49.2793 98.1543 50.1835 98.1543 51.2989C98.1543 52.4143 99.0585 53.3185 100.174 53.3185Z" fill="url(#paint6_linear_1423_1715)"/>
<path d="M149.049 55.3373C151.28 55.3373 153.088 53.5289 153.088 51.298C153.088 49.0672 151.28 47.2588 149.049 47.2588C146.818 47.2588 145.01 49.0672 145.01 51.298C145.01 53.5289 146.818 55.3373 149.049 55.3373Z" fill="url(#paint7_linear_1423_1715)"/>
<path d="M197.923 56.9534C201.154 56.9534 203.578 54.5299 203.578 51.2985C203.578 48.0671 201.154 45.6436 197.923 45.6436C194.691 45.6436 192.268 48.0671 192.268 51.2985C192.268 54.126 194.691 56.9534 197.923 56.9534Z" fill="url(#paint8_linear_1423_1715)"/>
<path d="M246.797 57.357C250.432 57.357 252.856 54.5295 252.856 51.2981C252.856 48.0667 250.029 45.2393 246.797 45.2393C243.162 45.2393 240.738 48.0667 240.738 51.2981C240.738 54.5295 243.566 57.357 246.797 57.357Z" fill="url(#paint9_linear_1423_1715)"/>
<path d="M295.673 56.9534C298.904 56.9534 301.327 54.5299 301.327 51.2985C301.327 48.0671 298.904 45.6436 295.673 45.6436C292.441 45.6436 290.018 48.0671 290.018 51.2985C290.018 54.126 292.441 56.9534 295.673 56.9534Z" fill="url(#paint10_linear_1423_1715)"/>
<path d="M344.549 55.7418C347.003 55.7418 348.992 53.7525 348.992 51.2986C348.992 48.8447 347.003 46.8555 344.549 46.8555C342.095 46.8555 340.105 48.8447 340.105 51.2986C340.105 53.7525 342.095 55.7418 344.549 55.7418Z" fill="url(#paint11_linear_1423_1715)"/>
<path d="M393.826 53.7221C395.164 53.7221 396.249 52.637 396.249 51.2985C396.249 49.9601 395.164 48.875 393.826 48.875C392.487 48.875 391.402 49.9601 391.402 51.2985C391.402 52.637 392.487 53.7221 393.826 53.7221Z" fill="url(#paint12_linear_1423_1715)"/>
<path d="M442.701 51.7024C442.924 51.7024 443.105 51.5215 443.105 51.2984C443.105 51.0754 442.924 50.8945 442.701 50.8945C442.478 50.8945 442.297 51.0754 442.297 51.2984C442.297 51.5215 442.478 51.7024 442.701 51.7024Z" fill="url(#paint13_linear_1423_1715)"/>
<path d="M51.2989 102.193C52.4143 102.193 53.3185 101.288 53.3185 100.173C53.3185 99.0575 52.4143 98.1533 51.2989 98.1533C50.1835 98.1533 49.2793 99.0575 49.2793 100.173C49.2793 101.288 50.1835 102.193 51.2989 102.193Z" fill="url(#paint14_linear_1423_1715)"/>
<path d="M100.173 105.021C103 105.021 105.424 102.597 105.424 99.7696C105.424 96.9421 103 94.5186 100.173 94.5186C97.3454 94.5186 94.9219 96.9421 94.9219 99.7696C94.9219 103.001 97.3454 105.021 100.173 105.021Z" fill="url(#paint15_linear_1423_1715)"/>
<path d="M149.048 107.848C153.491 107.848 156.722 104.213 156.722 100.174C156.722 95.7304 153.087 92.499 149.048 92.499C144.604 92.499 141.373 96.1343 141.373 100.174C141.373 104.213 144.604 107.848 149.048 107.848Z" fill="url(#paint16_linear_1423_1715)"/>
<path d="M197.923 109.868C203.174 109.868 207.617 105.425 207.617 100.174C207.617 94.9227 203.174 90.4795 197.923 90.4795C192.672 90.4795 188.229 94.9227 188.229 100.174C188.229 105.425 192.672 109.868 197.923 109.868Z" fill="url(#paint17_linear_1423_1715)"/>
<path d="M246.799 110.272C252.454 110.272 257.301 105.828 257.301 99.7696C257.301 94.1147 252.858 89.2676 246.799 89.2676C241.144 89.2676 236.297 93.7107 236.297 99.7696C236.701 105.828 241.144 110.272 246.799 110.272Z" fill="url(#paint18_linear_1423_1715)"/>
<path d="M295.673 109.868C300.924 109.868 305.367 105.425 305.367 100.174C305.367 94.9227 300.924 90.4795 295.673 90.4795C290.422 90.4795 285.979 94.9227 285.979 100.174C285.979 105.425 290.422 109.868 295.673 109.868Z" fill="url(#paint19_linear_1423_1715)"/>
<path d="M344.547 107.848C348.99 107.848 352.626 104.213 352.626 99.7699C352.626 95.3267 348.99 91.6914 344.547 91.6914C340.104 91.6914 336.469 95.3267 336.469 99.7699C336.873 104.617 340.104 107.848 344.547 107.848Z" fill="url(#paint20_linear_1423_1715)"/>
<path d="M393.826 105.424C396.654 105.424 399.077 103 399.077 100.173C399.077 97.3454 396.654 94.9219 393.826 94.9219C390.999 94.9219 388.575 97.3454 388.575 100.173C388.171 103 390.595 105.424 393.826 105.424Z" fill="url(#paint21_linear_1423_1715)"/>
<path d="M442.701 102.597C444.039 102.597 445.124 101.512 445.124 100.174C445.124 98.8351 444.039 97.75 442.701 97.75C441.362 97.75 440.277 98.8351 440.277 100.174C440.277 101.512 441.362 102.597 442.701 102.597Z" fill="url(#paint22_linear_1423_1715)"/>
<path d="M2.01879 149.856C2.42271 149.856 2.82664 149.452 2.82664 149.048C2.82664 148.644 2.42271 148.24 2.01879 148.24C1.61486 148.24 1.21094 148.644 1.21094 149.048C1.21094 149.452 1.61486 149.856 2.01879 149.856Z" fill="url(#paint23_linear_1423_1715)"/>
<path d="M51.298 153.087C53.7216 153.087 55.3373 151.068 55.3373 149.048C55.3373 146.624 53.3176 145.009 51.298 145.009C48.8745 145.009 47.2588 147.028 47.2588 149.048C46.8548 151.472 48.8745 153.087 51.298 153.087Z" fill="url(#paint24_linear_1423_1715)"/>
<path d="M100.173 156.723C104.616 156.723 107.847 153.088 107.847 149.049C107.847 144.605 104.212 141.374 100.173 141.374C95.7294 141.374 92.498 145.009 92.498 149.049C92.498 153.088 95.7294 156.723 100.173 156.723Z" fill="url(#paint25_linear_1423_1715)"/>
<path d="M149.049 159.955C155.107 159.955 159.955 155.107 159.955 149.049C159.955 142.99 155.107 138.143 149.049 138.143C142.99 138.143 138.143 142.99 138.143 149.049C138.143 155.107 142.99 159.955 149.049 159.955Z" fill="url(#paint26_linear_1423_1715)"/>
<path d="M197.923 162.378C205.194 162.378 211.253 156.319 211.253 149.048C211.253 141.778 205.194 135.719 197.923 135.719C190.653 135.719 184.594 141.778 184.594 149.048C184.594 156.319 190.653 162.378 197.923 162.378Z" fill="url(#paint27_linear_1423_1715)"/>
<path d="M246.797 163.186C254.876 163.186 261.338 156.723 261.338 148.645C261.338 140.566 254.876 134.104 246.797 134.104C238.719 134.104 232.256 140.566 232.256 148.645C232.66 156.723 238.719 163.186 246.797 163.186Z" fill="url(#paint28_linear_1423_1715)"/>
<path d="M295.673 162.781C303.258 162.781 309.406 156.633 309.406 149.048C309.406 141.463 303.258 135.314 295.673 135.314C288.088 135.314 281.939 141.463 281.939 149.048C281.939 156.633 288.088 162.781 295.673 162.781Z" fill="url(#paint29_linear_1423_1715)"/>
<path d="M344.548 159.954C350.607 159.954 355.858 155.107 355.858 148.644C355.858 142.181 351.011 137.334 344.548 137.334C338.085 137.334 333.238 142.181 333.238 148.644C333.238 155.107 338.489 159.954 344.548 159.954Z" fill="url(#paint30_linear_1423_1715)"/>
<path d="M393.826 157.127C398.27 157.127 401.905 153.491 401.905 149.048C401.905 144.605 398.27 140.97 393.826 140.97C389.383 140.97 385.748 144.605 385.748 149.048C385.748 153.491 389.383 157.127 393.826 157.127Z" fill="url(#paint31_linear_1423_1715)"/>
<path d="M442.701 153.492C445.155 153.492 447.144 151.503 447.144 149.049C447.144 146.595 445.155 144.605 442.701 144.605C440.247 144.605 438.258 146.595 438.258 149.049C438.258 151.503 440.247 153.492 442.701 153.492Z" fill="url(#paint32_linear_1423_1715)"/>
<path d="M491.577 150.26C491.981 150.26 492.789 149.857 492.789 149.049C492.789 148.645 492.385 147.837 491.577 147.837C491.173 147.837 490.365 148.241 490.365 149.049C490.365 149.453 490.769 150.26 491.577 150.26Z" fill="url(#paint33_linear_1423_1715)"/>
<path d="M2.02 199.539C2.91232 199.539 3.63569 198.816 3.63569 197.923C3.63569 197.031 2.91232 196.308 2.02 196.308C1.12767 196.308 0.404297 197.031 0.404297 197.923C0.404297 198.816 1.12767 199.539 2.02 199.539Z" fill="url(#paint34_linear_1423_1715)"/>
<path d="M51.299 203.578C54.5304 203.578 56.954 201.155 56.954 197.924C56.954 194.692 54.5304 192.269 51.299 192.269C48.0676 192.269 45.6441 194.692 45.6441 197.924C45.2401 201.155 48.0676 203.578 51.299 203.578Z" fill="url(#paint35_linear_1423_1715)"/>
<path d="M100.173 207.617C105.527 207.617 109.867 203.277 109.867 197.923C109.867 192.569 105.527 188.229 100.173 188.229C94.8188 188.229 90.4785 192.569 90.4785 197.923C90.4785 203.277 94.8188 207.617 100.173 207.617Z" fill="url(#paint36_linear_1423_1715)"/>
<path d="M149.048 211.253C156.41 211.253 162.378 205.285 162.378 197.923C162.378 190.562 156.41 184.594 149.048 184.594C141.687 184.594 135.719 190.562 135.719 197.923C135.719 205.285 141.687 211.253 149.048 211.253Z" fill="url(#paint37_linear_1423_1715)"/>
<path d="M197.922 214.484C207.213 214.484 214.483 207.213 214.483 197.923C214.483 188.633 207.213 181.362 197.922 181.362C188.632 181.362 181.361 188.633 181.361 197.923C181.361 207.213 188.632 214.484 197.922 214.484Z" fill="url(#paint38_linear_1423_1715)"/>
<path d="M246.798 216.099C256.836 216.099 264.974 207.961 264.974 197.923C264.974 187.884 256.836 179.746 246.798 179.746C236.759 179.746 228.621 187.884 228.621 197.923C228.621 207.961 236.759 216.099 246.798 216.099Z" fill="url(#paint39_linear_1423_1715)"/>
<path d="M295.674 214.888C305.043 214.888 312.639 207.292 312.639 197.923C312.639 188.553 305.043 180.958 295.674 180.958C286.304 180.958 278.709 188.553 278.709 197.923C278.709 207.292 286.304 214.888 295.674 214.888Z" fill="url(#paint40_linear_1423_1715)"/>
<path d="M344.548 211.656C352.133 211.656 358.281 205.508 358.281 197.923C358.281 190.338 352.133 184.189 344.548 184.189C336.963 184.189 330.814 190.338 330.814 197.923C330.814 205.508 336.963 211.656 344.548 211.656Z" fill="url(#paint41_linear_1423_1715)"/>
<path d="M393.827 207.617C399.482 207.617 403.925 203.174 403.925 197.519C403.925 191.864 399.482 187.421 393.827 187.421C388.172 187.421 383.729 192.268 383.729 197.923C383.729 203.578 388.172 207.617 393.827 207.617Z" fill="url(#paint42_linear_1423_1715)"/>
<path d="M442.701 203.982C446.048 203.982 448.76 201.269 448.76 197.923C448.76 194.577 446.048 191.864 442.701 191.864C439.355 191.864 436.643 194.577 436.643 197.923C436.643 201.269 439.355 203.982 442.701 203.982Z" fill="url(#paint43_linear_1423_1715)"/>
<path d="M491.576 199.943C492.692 199.943 493.596 199.038 493.596 197.923C493.596 196.808 492.692 195.903 491.576 195.903C490.461 195.903 489.557 196.808 489.557 197.923C489.557 199.038 490.461 199.943 491.576 199.943Z" fill="url(#paint44_linear_1423_1715)"/>
<path d="M2.01962 248.818C3.13503 248.818 4.03925 247.913 4.03925 246.798C4.03925 245.683 3.13503 244.778 2.01962 244.778C0.904216 244.778 0 245.683 0 246.798C0 247.913 0.904216 248.818 2.01962 248.818Z" fill="url(#paint45_linear_1423_1715)"/>
<path d="M51.2985 253.26C54.9338 253.26 57.3574 250.433 57.3574 247.201C57.3574 243.566 54.5299 241.143 51.2985 241.143C47.6632 241.143 45.2397 243.97 45.2397 247.201C44.8357 250.433 47.6632 253.26 51.2985 253.26Z" fill="url(#paint46_linear_1423_1715)"/>
<path d="M100.174 257.3C105.829 257.3 110.676 252.857 110.676 246.798C110.676 241.143 106.233 236.296 100.174 236.296C94.519 236.296 89.6719 240.739 89.6719 246.798C89.6719 252.453 94.519 257.3 100.174 257.3Z" fill="url(#paint47_linear_1423_1715)"/>
<path d="M149.049 261.339C157.128 261.339 163.59 254.877 163.59 246.798C163.59 238.72 157.128 232.257 149.049 232.257C140.971 232.257 134.508 238.72 134.508 246.798C134.508 254.877 140.971 261.339 149.049 261.339Z" fill="url(#paint48_linear_1423_1715)"/>
<path d="M197.923 264.974C207.961 264.974 216.099 256.836 216.099 246.798C216.099 236.759 207.961 228.621 197.923 228.621C187.884 228.621 179.746 236.759 179.746 246.798C179.746 256.836 187.884 264.974 197.923 264.974Z" fill="url(#paint49_linear_1423_1715)"/>
<path d="M246.797 267.802C258.397 267.802 267.801 258.398 267.801 246.798C267.801 235.198 258.397 225.794 246.797 225.794C235.197 225.794 225.793 235.198 225.793 246.798C225.793 258.398 235.197 267.802 246.797 267.802Z" fill="url(#paint50_linear_1423_1715)"/>
<path d="M295.672 265.379C305.934 265.379 314.253 257.06 314.253 246.798C314.253 236.537 305.934 228.218 295.672 228.218C285.411 228.218 277.092 236.537 277.092 246.798C277.092 257.06 285.411 265.379 295.672 265.379Z" fill="url(#paint51_linear_1423_1715)"/>
<path d="M344.547 261.339C352.626 261.339 359.088 254.877 359.088 246.798C359.088 238.72 352.626 232.257 344.547 232.257C336.469 232.257 330.006 238.72 330.006 246.798C330.006 254.877 336.469 261.339 344.547 261.339Z" fill="url(#paint52_linear_1423_1715)"/>
<path d="M393.826 257.3C399.481 257.3 404.328 252.453 404.328 246.798C404.328 241.143 399.481 236.296 393.826 236.296C388.171 236.296 383.324 241.143 383.324 246.798C382.92 252.857 387.767 257.3 393.826 257.3Z" fill="url(#paint53_linear_1423_1715)"/>
<path d="M442.701 253.261C446.336 253.261 449.164 250.433 449.164 246.798C449.164 243.162 446.336 240.335 442.701 240.335C439.066 240.335 436.238 243.162 436.238 246.798C436.238 250.433 439.066 253.261 442.701 253.261Z" fill="url(#paint54_linear_1423_1715)"/>
<path d="M491.576 249.222C492.914 249.222 494 248.137 494 246.799C494 245.46 492.914 244.375 491.576 244.375C490.237 244.375 489.152 245.46 489.152 246.799C489.152 248.137 490.237 249.222 491.576 249.222Z" fill="url(#paint55_linear_1423_1715)"/>
<path d="M2.02 297.692C2.82785 297.692 3.63569 296.884 3.63569 296.077C3.63569 295.269 2.82785 294.461 2.02 294.461C1.21215 294.461 0.404297 294.865 0.404297 295.673C0.404297 296.481 1.21215 297.692 2.02 297.692Z" fill="url(#paint56_linear_1423_1715)"/>
<path d="M51.299 301.327C54.5304 301.327 56.954 298.904 56.954 295.673C56.954 292.441 54.5304 290.018 51.299 290.018C48.0676 290.018 45.6441 292.441 45.6441 295.673C45.2401 298.904 48.0676 301.327 51.299 301.327Z" fill="url(#paint57_linear_1423_1715)"/>
<path d="M100.173 305.367C105.527 305.367 109.867 301.027 109.867 295.673C109.867 290.319 105.527 285.979 100.173 285.979C94.8188 285.979 90.4785 290.319 90.4785 295.673C90.4785 301.027 94.8188 305.367 100.173 305.367Z" fill="url(#paint58_linear_1423_1715)"/>
<path d="M149.048 309.406C156.633 309.406 162.781 303.258 162.781 295.673C162.781 288.088 156.633 281.939 149.048 281.939C141.463 281.939 135.314 288.088 135.314 295.673C135.314 303.258 141.463 309.406 149.048 309.406Z" fill="url(#paint59_linear_1423_1715)"/>
<path d="M197.924 312.638C207.214 312.638 214.889 304.963 214.889 295.673C214.889 286.383 207.214 278.708 197.924 278.708C188.634 278.708 180.959 286.383 180.959 295.673C180.959 304.963 188.634 312.638 197.924 312.638Z" fill="url(#paint60_linear_1423_1715)"/>
<path d="M246.797 314.254C257.059 314.254 265.378 305.935 265.378 295.673C265.378 285.412 257.059 277.093 246.797 277.093C236.536 277.093 228.217 285.412 228.217 295.673C228.217 305.935 236.536 314.254 246.797 314.254Z" fill="url(#paint61_linear_1423_1715)"/>
<path d="M295.674 313.042C304.964 313.042 312.639 305.367 312.639 296.077C312.639 286.787 304.964 279.112 295.674 279.112C286.384 279.112 278.709 286.383 278.709 295.673C278.709 305.367 286.384 313.042 295.674 313.042Z" fill="url(#paint62_linear_1423_1715)"/>
<path d="M344.548 309.406C352.133 309.406 358.281 303.258 358.281 295.673C358.281 288.088 352.133 281.939 344.548 281.939C336.963 281.939 330.814 288.088 330.814 295.673C330.814 303.258 336.963 309.406 344.548 309.406Z" fill="url(#paint63_linear_1423_1715)"/>
<path d="M393.827 305.771C399.482 305.771 403.925 301.328 403.925 295.673C403.925 290.018 399.482 285.575 393.827 285.575C388.172 285.575 383.729 290.018 383.729 295.673C383.729 301.328 388.172 305.771 393.827 305.771Z" fill="url(#paint64_linear_1423_1715)"/>
<path d="M442.701 301.732C445.933 301.732 448.76 298.905 448.76 295.673C448.76 292.442 445.933 289.614 442.701 289.614C439.47 289.614 436.643 292.442 436.643 295.673C436.643 298.905 439.066 301.732 442.701 301.732Z" fill="url(#paint65_linear_1423_1715)"/>
<path d="M491.576 297.693C492.692 297.693 493.596 296.788 493.596 295.673C493.596 294.558 492.692 293.653 491.576 293.653C490.461 293.653 489.557 294.558 489.557 295.673C489.557 296.788 490.461 297.693 491.576 297.693Z" fill="url(#paint66_linear_1423_1715)"/>
<path d="M2.01879 345.759C2.42271 345.759 2.82664 345.355 2.82664 344.951C2.82664 344.548 2.42271 344.144 2.01879 344.144C1.61486 344.144 1.21094 344.548 1.21094 344.951C1.21094 345.355 1.61486 345.759 2.01879 345.759Z" fill="url(#paint67_linear_1423_1715)"/>
<path d="M51.2986 348.991C53.7222 348.991 55.7418 346.971 55.7418 344.548C55.7418 342.124 53.7222 340.104 51.2986 340.104C48.8751 340.104 46.8555 342.124 46.8555 344.548C46.8555 346.971 48.8751 348.991 51.2986 348.991Z" fill="url(#paint68_linear_1423_1715)"/>
<path d="M100.174 352.627C104.617 352.627 108.253 348.991 108.253 344.548C108.253 340.105 104.617 336.47 100.174 336.47C95.731 336.47 92.0957 340.105 92.0957 344.548C92.0957 348.991 95.731 352.627 100.174 352.627Z" fill="url(#paint69_linear_1423_1715)"/>
<path d="M491.577 345.759C491.981 345.759 492.789 345.356 492.789 344.548C492.789 343.74 492.385 343.336 491.577 343.336C491.173 343.336 490.365 343.74 490.365 344.548C490.365 345.356 490.769 345.759 491.577 345.759Z" fill="url(#paint70_linear_1423_1715)"/>
<path d="M51.2984 443.106C51.7024 443.106 51.7024 443.106 51.7024 442.702C51.7024 442.298 51.7024 442.298 51.2984 442.298C50.8945 442.298 50.8945 442.298 50.8945 442.702C50.8945 442.702 50.8945 443.106 51.2984 443.106Z" fill="url(#paint71_linear_1423_1715)"/>
<path d="M442.701 443.106C443.105 443.106 443.105 443.106 443.105 442.702C443.105 442.298 443.105 442.298 442.701 442.298C442.297 442.298 442.297 442.298 442.297 442.702C442.297 442.702 442.297 443.106 442.701 443.106Z" fill="url(#paint72_linear_1423_1715)"/>
<defs>
<linearGradient id="paint0_linear_1423_1715" x1="149.048" y1="1.21191" x2="149.048" y2="2.82761" gradientUnits="userSpaceOnUse">
<stop stop-color="#FFD530"/>
<stop offset="1" stop-color="#FFD530" stop-opacity="0"/>
</linearGradient>
<linearGradient id="paint1_linear_1423_1715" x1="197.922" y1="0.404297" x2="197.922" y2="4.03962" gradientUnits="userSpaceOnUse">
<stop stop-color="#FFD530"/>
<stop offset="1" stop-color="#FFD530" stop-opacity="0"/>
</linearGradient>
<linearGradient id="paint2_linear_1423_1715" x1="246.799" y1="0" x2="246.799" y2="4.03925" gradientUnits="userSpaceOnUse">
<stop stop-color="#FFD530"/>
<stop offset="1" stop-color="#FFD530" stop-opacity="0"/>
</linearGradient>
<linearGradient id="paint3_linear_1423_1715" x1="295.672" y1="0.404297" x2="295.672" y2="3.63569" gradientUnits="userSpaceOnUse">
<stop stop-color="#FFD530"/>
<stop offset="1" stop-color="#FFD530" stop-opacity="0"/>
</linearGradient>
<linearGradient id="paint4_linear_1423_1715" x1="344.548" y1="1.61523" x2="344.548" y2="3.23093" gradientUnits="userSpaceOnUse">
<stop stop-color="#FFD530"/>
<stop offset="1" stop-color="#FFD530" stop-opacity="0"/>
</linearGradient>
<linearGradient id="paint5_linear_1423_1715" x1="51.2373" y1="50.8945" x2="51.2373" y2="51.2985" gradientUnits="userSpaceOnUse">
<stop stop-color="#FFD530"/>
<stop offset="1" stop-color="#FFD530" stop-opacity="0"/>
</linearGradient>
<linearGradient id="paint6_linear_1423_1715" x1="100.174" y1="49.2793" x2="100.174" y2="53.3185" gradientUnits="userSpaceOnUse">
<stop stop-color="#FFD530"/>
<stop offset="1" stop-color="#FFD530" stop-opacity="0"/>
</linearGradient>
<linearGradient id="paint7_linear_1423_1715" x1="149.049" y1="47.2588" x2="149.049" y2="55.3373" gradientUnits="userSpaceOnUse">
<stop stop-color="#FFD530"/>
<stop offset="1" stop-color="#FFD530" stop-opacity="0"/>
</linearGradient>
<linearGradient id="paint8_linear_1423_1715" x1="197.923" y1="45.6436" x2="197.923" y2="56.9534" gradientUnits="userSpaceOnUse">
<stop stop-color="#FFD530"/>
<stop offset="1" stop-color="#FFD530" stop-opacity="0"/>
</linearGradient>
<linearGradient id="paint9_linear_1423_1715" x1="246.797" y1="45.2393" x2="246.797" y2="57.357" gradientUnits="userSpaceOnUse">
<stop stop-color="#FFD530"/>
<stop offset="1" stop-color="#FFD530" stop-opacity="0"/>
</linearGradient>
<linearGradient id="paint10_linear_1423_1715" x1="295.673" y1="45.6436" x2="295.673" y2="56.9534" gradientUnits="userSpaceOnUse">
<stop stop-color="#FFD530"/>
<stop offset="1" stop-color="#FFD530" stop-opacity="0"/>
</linearGradient>
<linearGradient id="paint11_linear_1423_1715" x1="344.549" y1="46.8555" x2="344.549" y2="55.7418" gradientUnits="userSpaceOnUse">
<stop stop-color="#FFD530"/>
<stop offset="1" stop-color="#FFD530" stop-opacity="0"/>
</linearGradient>
<linearGradient id="paint12_linear_1423_1715" x1="393.826" y1="48.875" x2="393.826" y2="53.7221" gradientUnits="userSpaceOnUse">
<stop stop-color="#FFD530"/>
<stop offset="1" stop-color="#FFD530" stop-opacity="0"/>
</linearGradient>
<linearGradient id="paint13_linear_1423_1715" x1="442.701" y1="50.8945" x2="442.701" y2="51.7024" gradientUnits="userSpaceOnUse">
<stop stop-color="#FFD530"/>
<stop offset="1" stop-color="#FFD530" stop-opacity="0"/>
</linearGradient>
<linearGradient id="paint14_linear_1423_1715" x1="51.2989" y1="98.1533" x2="51.2989" y2="102.193" gradientUnits="userSpaceOnUse">
<stop stop-color="#FFD530"/>
<stop offset="1" stop-color="#FFD530" stop-opacity="0"/>
</linearGradient>
<linearGradient id="paint15_linear_1423_1715" x1="100.173" y1="94.5186" x2="100.173" y2="105.021" gradientUnits="userSpaceOnUse">
<stop stop-color="#FFD530"/>
<stop offset="1" stop-color="#FFD530" stop-opacity="0"/>
</linearGradient>
<linearGradient id="paint16_linear_1423_1715" x1="149.048" y1="92.499" x2="149.048" y2="107.848" gradientUnits="userSpaceOnUse">
<stop stop-color="#FFD530"/>
<stop offset="1" stop-color="#FFD530" stop-opacity="0"/>
</linearGradient>
<linearGradient id="paint17_linear_1423_1715" x1="197.923" y1="90.4795" x2="197.923" y2="109.868" gradientUnits="userSpaceOnUse">
<stop stop-color="#FFD530"/>
<stop offset="1" stop-color="#FFD530" stop-opacity="0"/>
</linearGradient>
<linearGradient id="paint18_linear_1423_1715" x1="246.799" y1="89.2676" x2="246.799" y2="110.272" gradientUnits="userSpaceOnUse">
<stop stop-color="#FFD530"/>
<stop offset="1" stop-color="#FFD530" stop-opacity="0"/>
</linearGradient>
<linearGradient id="paint19_linear_1423_1715" x1="295.673" y1="90.4795" x2="295.673" y2="109.868" gradientUnits="userSpaceOnUse">
<stop stop-color="#FFD530"/>
<stop offset="1" stop-color="#FFD530" stop-opacity="0"/>
</linearGradient>
<linearGradient id="paint20_linear_1423_1715" x1="344.547" y1="91.6914" x2="344.547" y2="107.848" gradientUnits="userSpaceOnUse">
<stop stop-color="#FFD530"/>
<stop offset="1" stop-color="#FFD530" stop-opacity="0"/>
</linearGradient>
<linearGradient id="paint21_linear_1423_1715" x1="393.804" y1="94.9219" x2="393.804" y2="105.424" gradientUnits="userSpaceOnUse">
<stop stop-color="#FFD530"/>
<stop offset="1" stop-color="#FFD530" stop-opacity="0"/>
</linearGradient>
<linearGradient id="paint22_linear_1423_1715" x1="442.701" y1="97.75" x2="442.701" y2="102.597" gradientUnits="userSpaceOnUse">
<stop stop-color="#FFD530"/>
<stop offset="1" stop-color="#FFD530" stop-opacity="0"/>
</linearGradient>
<linearGradient id="paint23_linear_1423_1715" x1="2.01879" y1="148.24" x2="2.01879" y2="149.856" gradientUnits="userSpaceOnUse">
<stop stop-color="#FFD530"/>
<stop offset="1" stop-color="#FFD530" stop-opacity="0"/>
</linearGradient>
<linearGradient id="paint24_linear_1423_1715" x1="51.2721" y1="145.009" x2="51.2721" y2="153.087" gradientUnits="userSpaceOnUse">
<stop stop-color="#FFD530"/>
<stop offset="1" stop-color="#FFD530" stop-opacity="0"/>
</linearGradient>
<linearGradient id="paint25_linear_1423_1715" x1="100.173" y1="141.374" x2="100.173" y2="156.723" gradientUnits="userSpaceOnUse">
<stop stop-color="#FFD530"/>
<stop offset="1" stop-color="#FFD530" stop-opacity="0"/>
</linearGradient>
<linearGradient id="paint26_linear_1423_1715" x1="149.049" y1="138.143" x2="149.049" y2="159.955" gradientUnits="userSpaceOnUse">
<stop stop-color="#FFD530"/>
<stop offset="1" stop-color="#FFD530" stop-opacity="0"/>
</linearGradient>
<linearGradient id="paint27_linear_1423_1715" x1="197.923" y1="135.719" x2="197.923" y2="162.378" gradientUnits="userSpaceOnUse">
<stop stop-color="#FFD530"/>
<stop offset="1" stop-color="#FFD530" stop-opacity="0"/>
</linearGradient>
<linearGradient id="paint28_linear_1423_1715" x1="246.797" y1="134.104" x2="246.797" y2="163.186" gradientUnits="userSpaceOnUse">
<stop stop-color="#FFD530"/>
<stop offset="1" stop-color="#FFD530" stop-opacity="0"/>
</linearGradient>
<linearGradient id="paint29_linear_1423_1715" x1="295.673" y1="135.314" x2="295.673" y2="162.781" gradientUnits="userSpaceOnUse">
<stop stop-color="#FFD530"/>
<stop offset="1" stop-color="#FFD530" stop-opacity="0"/>
</linearGradient>
<linearGradient id="paint30_linear_1423_1715" x1="344.548" y1="137.334" x2="344.548" y2="159.954" gradientUnits="userSpaceOnUse">
<stop stop-color="#FFD530"/>
<stop offset="1" stop-color="#FFD530" stop-opacity="0"/>
</linearGradient>
<linearGradient id="paint31_linear_1423_1715" x1="393.826" y1="140.97" x2="393.826" y2="157.127" gradientUnits="userSpaceOnUse">
<stop stop-color="#FFD530"/>
<stop offset="1" stop-color="#FFD530" stop-opacity="0"/>
</linearGradient>
<linearGradient id="paint32_linear_1423_1715" x1="442.701" y1="144.605" x2="442.701" y2="153.492" gradientUnits="userSpaceOnUse">
<stop stop-color="#FFD530"/>
<stop offset="1" stop-color="#FFD530" stop-opacity="0"/>
</linearGradient>
<linearGradient id="paint33_linear_1423_1715" x1="491.577" y1="147.837" x2="491.577" y2="150.26" gradientUnits="userSpaceOnUse">
<stop stop-color="#FFD530"/>
<stop offset="1" stop-color="#FFD530" stop-opacity="0"/>
</linearGradient>
<linearGradient id="paint34_linear_1423_1715" x1="2.02" y1="196.308" x2="2.02" y2="199.539" gradientUnits="userSpaceOnUse">
<stop stop-color="#FFD530"/>
<stop offset="1" stop-color="#FFD530" stop-opacity="0"/>
</linearGradient>
<linearGradient id="paint35_linear_1423_1715" x1="51.2797" y1="192.269" x2="51.2797" y2="203.578" gradientUnits="userSpaceOnUse">
<stop stop-color="#FFD530"/>
<stop offset="1" stop-color="#FFD530" stop-opacity="0"/>
</linearGradient>
<linearGradient id="paint36_linear_1423_1715" x1="100.173" y1="188.229" x2="100.173" y2="207.617" gradientUnits="userSpaceOnUse">
<stop stop-color="#FFD530"/>
<stop offset="1" stop-color="#FFD530" stop-opacity="0"/>
</linearGradient>
<linearGradient id="paint37_linear_1423_1715" x1="149.048" y1="184.594" x2="149.048" y2="211.253" gradientUnits="userSpaceOnUse">
<stop stop-color="#FFD530"/>
<stop offset="1" stop-color="#FFD530" stop-opacity="0"/>
</linearGradient>
<linearGradient id="paint38_linear_1423_1715" x1="197.922" y1="181.362" x2="197.922" y2="214.484" gradientUnits="userSpaceOnUse">
<stop stop-color="#FFD530"/>
<stop offset="1" stop-color="#FFD530" stop-opacity="0"/>
</linearGradient>
<linearGradient id="paint39_linear_1423_1715" x1="246.798" y1="179.746" x2="246.798" y2="216.099" gradientUnits="userSpaceOnUse">
<stop stop-color="#FFD530"/>
<stop offset="1" stop-color="#FFD530" stop-opacity="0"/>
</linearGradient>
<linearGradient id="paint40_linear_1423_1715" x1="295.674" y1="180.958" x2="295.674" y2="214.888" gradientUnits="userSpaceOnUse">
<stop stop-color="#FFD530"/>
<stop offset="1" stop-color="#FFD530" stop-opacity="0"/>
</linearGradient>
<linearGradient id="paint41_linear_1423_1715" x1="344.548" y1="184.189" x2="344.548" y2="211.656" gradientUnits="userSpaceOnUse">
<stop stop-color="#FFD530"/>
<stop offset="1" stop-color="#FFD530" stop-opacity="0"/>
</linearGradient>
<linearGradient id="paint42_linear_1423_1715" x1="393.827" y1="187.421" x2="393.827" y2="207.617" gradientUnits="userSpaceOnUse">
<stop stop-color="#FFD530"/>
<stop offset="1" stop-color="#FFD530" stop-opacity="0"/>
</linearGradient>
<linearGradient id="paint43_linear_1423_1715" x1="442.701" y1="191.864" x2="442.701" y2="203.982" gradientUnits="userSpaceOnUse">
<stop stop-color="#FFD530"/>
<stop offset="1" stop-color="#FFD530" stop-opacity="0"/>
</linearGradient>
<linearGradient id="paint44_linear_1423_1715" x1="491.576" y1="195.903" x2="491.576" y2="199.943" gradientUnits="userSpaceOnUse">
<stop stop-color="#FFD530"/>
<stop offset="1" stop-color="#FFD530" stop-opacity="0"/>
</linearGradient>
<linearGradient id="paint45_linear_1423_1715" x1="2.01962" y1="244.778" x2="2.01962" y2="248.818" gradientUnits="userSpaceOnUse">
<stop stop-color="#FFD530"/>
<stop offset="1" stop-color="#FFD530" stop-opacity="0"/>
</linearGradient>
<linearGradient id="paint46_linear_1423_1715" x1="51.2793" y1="241.143" x2="51.2793" y2="253.26" gradientUnits="userSpaceOnUse">
<stop stop-color="#FFD530"/>
<stop offset="1" stop-color="#FFD530" stop-opacity="0"/>
</linearGradient>
<linearGradient id="paint47_linear_1423_1715" x1="100.174" y1="236.296" x2="100.174" y2="257.3" gradientUnits="userSpaceOnUse">
<stop stop-color="#FFD530"/>
<stop offset="1" stop-color="#FFD530" stop-opacity="0"/>
</linearGradient>
<linearGradient id="paint48_linear_1423_1715" x1="149.049" y1="232.257" x2="149.049" y2="261.339" gradientUnits="userSpaceOnUse">
<stop stop-color="#FFD530"/>
<stop offset="1" stop-color="#FFD530" stop-opacity="0"/>
</linearGradient>
<linearGradient id="paint49_linear_1423_1715" x1="197.923" y1="228.621" x2="197.923" y2="264.974" gradientUnits="userSpaceOnUse">
<stop stop-color="#FFD530"/>
<stop offset="1" stop-color="#FFD530" stop-opacity="0"/>
</linearGradient>
<linearGradient id="paint50_linear_1423_1715" x1="246.797" y1="225.794" x2="246.797" y2="267.802" gradientUnits="userSpaceOnUse">
<stop stop-color="#FFD530"/>
<stop offset="1" stop-color="#FFD530" stop-opacity="0"/>
</linearGradient>
<linearGradient id="paint51_linear_1423_1715" x1="295.672" y1="228.218" x2="295.672" y2="265.379" gradientUnits="userSpaceOnUse">
<stop stop-color="#FFD530"/>
<stop offset="1" stop-color="#FFD530" stop-opacity="0"/>
</linearGradient>
<linearGradient id="paint52_linear_1423_1715" x1="344.547" y1="232.257" x2="344.547" y2="261.339" gradientUnits="userSpaceOnUse">
<stop stop-color="#FFD530"/>
<stop offset="1" stop-color="#FFD530" stop-opacity="0"/>
</linearGradient>
<linearGradient id="paint53_linear_1423_1715" x1="393.815" y1="236.296" x2="393.815" y2="257.3" gradientUnits="userSpaceOnUse">
<stop stop-color="#FFD530"/>
<stop offset="1" stop-color="#FFD530" stop-opacity="0"/>
</linearGradient>
<linearGradient id="paint54_linear_1423_1715" x1="442.701" y1="240.335" x2="442.701" y2="253.261" gradientUnits="userSpaceOnUse">
<stop stop-color="#FFD530"/>
<stop offset="1" stop-color="#FFD530" stop-opacity="0"/>
</linearGradient>
<linearGradient id="paint55_linear_1423_1715" x1="491.576" y1="244.375" x2="491.576" y2="249.222" gradientUnits="userSpaceOnUse">
<stop stop-color="#FFD530"/>
<stop offset="1" stop-color="#FFD530" stop-opacity="0"/>
</linearGradient>
<linearGradient id="paint56_linear_1423_1715" x1="2.02" y1="294.461" x2="2.02" y2="297.692" gradientUnits="userSpaceOnUse">
<stop stop-color="#FFD530"/>
<stop offset="1" stop-color="#FFD530" stop-opacity="0"/>
</linearGradient>
<linearGradient id="paint57_linear_1423_1715" x1="51.2797" y1="290.018" x2="51.2797" y2="301.327" gradientUnits="userSpaceOnUse">
<stop stop-color="#FFD530"/>
<stop offset="1" stop-color="#FFD530" stop-opacity="0"/>
</linearGradient>
<linearGradient id="paint58_linear_1423_1715" x1="100.173" y1="285.979" x2="100.173" y2="305.367" gradientUnits="userSpaceOnUse">
<stop stop-color="#FFD530"/>
<stop offset="1" stop-color="#FFD530" stop-opacity="0"/>
</linearGradient>
<linearGradient id="paint59_linear_1423_1715" x1="149.048" y1="281.939" x2="149.048" y2="309.406" gradientUnits="userSpaceOnUse">
<stop stop-color="#FFD530"/>
<stop offset="1" stop-color="#FFD530" stop-opacity="0"/>
</linearGradient>
<linearGradient id="paint60_linear_1423_1715" x1="197.924" y1="278.708" x2="197.924" y2="312.638" gradientUnits="userSpaceOnUse">
<stop stop-color="#FFD530"/>
<stop offset="1" stop-color="#FFD530" stop-opacity="0"/>
</linearGradient>
<linearGradient id="paint61_linear_1423_1715" x1="246.797" y1="277.093" x2="246.797" y2="314.254" gradientUnits="userSpaceOnUse">
<stop stop-color="#FFD530"/>
<stop offset="1" stop-color="#FFD530" stop-opacity="0"/>
</linearGradient>
<linearGradient id="paint62_linear_1423_1715" x1="295.674" y1="279.112" x2="295.674" y2="313.042" gradientUnits="userSpaceOnUse">
<stop stop-color="#FFD530"/>
<stop offset="1" stop-color="#FFD530" stop-opacity="0"/>
</linearGradient>
<linearGradient id="paint63_linear_1423_1715" x1="344.548" y1="281.939" x2="344.548" y2="309.406" gradientUnits="userSpaceOnUse">
<stop stop-color="#FFD530"/>
<stop offset="1" stop-color="#FFD530" stop-opacity="0"/>
</linearGradient>
<linearGradient id="paint64_linear_1423_1715" x1="393.827" y1="285.575" x2="393.827" y2="305.771" gradientUnits="userSpaceOnUse">
<stop stop-color="#FFD530"/>
<stop offset="1" stop-color="#FFD530" stop-opacity="0"/>
</linearGradient>
<linearGradient id="paint65_linear_1423_1715" x1="442.701" y1="289.614" x2="442.701" y2="301.732" gradientUnits="userSpaceOnUse">
<stop stop-color="#FFD530"/>
<stop offset="1" stop-color="#FFD530" stop-opacity="0"/>
</linearGradient>
<linearGradient id="paint66_linear_1423_1715" x1="491.576" y1="293.653" x2="491.576" y2="297.693" gradientUnits="userSpaceOnUse">
<stop stop-color="#FFD530"/>
<stop offset="1" stop-color="#FFD530" stop-opacity="0"/>
</linearGradient>
<linearGradient id="paint67_linear_1423_1715" x1="2.01879" y1="344.144" x2="2.01879" y2="345.759" gradientUnits="userSpaceOnUse">
<stop stop-color="#FFD530"/>
<stop offset="1" stop-color="#FFD530" stop-opacity="0"/>
</linearGradient>
<linearGradient id="paint68_linear_1423_1715" x1="51.2986" y1="340.104" x2="51.2986" y2="348.991" gradientUnits="userSpaceOnUse">
<stop stop-color="#FFD530"/>
<stop offset="1" stop-color="#FFD530" stop-opacity="0"/>
</linearGradient>
<linearGradient id="paint69_linear_1423_1715" x1="100.174" y1="336.47" x2="100.174" y2="352.627" gradientUnits="userSpaceOnUse">
<stop stop-color="#FFD530"/>
<stop offset="1" stop-color="#FFD530" stop-opacity="0"/>
</linearGradient>
<linearGradient id="paint70_linear_1423_1715" x1="491.577" y1="343.336" x2="491.577" y2="345.759" gradientUnits="userSpaceOnUse">
<stop stop-color="#FFD530"/>
<stop offset="1" stop-color="#FFD530" stop-opacity="0"/>
</linearGradient>
<linearGradient id="paint71_linear_1423_1715" x1="51.2985" y1="442.298" x2="51.2985" y2="443.106" gradientUnits="userSpaceOnUse">
<stop stop-color="#FFD530"/>
<stop offset="1" stop-color="#FFD530" stop-opacity="0"/>
</linearGradient>
<linearGradient id="paint72_linear_1423_1715" x1="442.701" y1="442.298" x2="442.701" y2="443.106" gradientUnits="userSpaceOnUse">
<stop stop-color="#FFD530"/>
<stop offset="1" stop-color="#FFD530" stop-opacity="0"/>
</linearGradient>
</defs>
</svg>
