<svg width="390" height="86" viewBox="0 0 390 86" fill="none" xmlns="http://www.w3.org/2000/svg">
<path d="M368.928 1.96216C370.333 1.91433 371.838 2.05054 373.242 2.00272C374.463 2.05488 375.952 1.72302 377.188 2.24326C379.177 2.83162 380.644 4.65609 381.728 6.21248C383.911 9.79332 385.073 13.6901 386.234 17.5868C388.09 25.3963 388.725 33.1536 388.992 41.1108C389.106 50.1043 388.468 59.0296 386.609 67.9027C385.798 71.6792 384.618 75.6557 382.955 79.18C381.813 81.4682 379.866 84.9085 376.888 85.5722C375.214 86.0041 373.142 85.6998 371.453 85.6635C368.543 85.5751 365.734 85.6708 362.824 85.5824C342.006 85.4477 13.8069 83.9691 12.0024 83.2808C8.00945 81.636 6.14804 76.4509 5.00177 73.0223C2.30955 65.4287 1.39038 57.5874 1.12364 49.6301C0.641363 40.8367 0.911419 32.1113 2.40204 23.4382C3.5029 17.1213 4.77222 10.2364 8.32993 4.492C9.40352 2.9559 10.7455 1.03578 12.9711 0.303959C13.792 -0.380045 364.798 1.8216 368.928 1.96216Z" fill="url(#paint0_linear_465_2998)"/>
<defs>
<linearGradient id="paint0_linear_465_2998" x1="410.561" y1="33.8176" x2="-125.059" y2="55.8375" gradientUnits="userSpaceOnUse">
<stop stop-color="#FDEA4A"/>
<stop offset="0.5269" stop-color="#03ECFA"/>
<stop offset="1" stop-color="#2B24A4"/>
</linearGradient>
</defs>
</svg>
