<svg width="34" height="25" viewBox="0 0 34 25" fill="none" xmlns="http://www.w3.org/2000/svg">
<rect x="0.400391" y="0.5" width="33.6" height="24" rx="2" fill="white"/>
<mask id="mask0_1423_1701" style="mask-type:alpha" maskUnits="userSpaceOnUse" x="0" y="0" width="34" height="25">
<rect x="0.400391" y="0.5" width="33.6" height="24" rx="2" fill="white"/>
</mask>
<g mask="url(#mask0_1423_1701)">
<rect x="0.400391" y="0.5" width="33.6" height="24" fill="#0A17A7"/>
<path fill-rule="evenodd" clip-rule="evenodd" d="M8.40913 16.4999L-2.92773 24.1467L-1.13832 26.7997L13.2006 17.1279V26.0999H21.2006V17.1279L35.5396 26.7997L37.329 24.1468L25.9921 16.4999H34.0006V8.49993H25.9922L37.329 0.853116L35.5396 -1.7998L21.2006 7.87195V-1.10007H13.2006V7.87195L-1.13832 -1.7998L-2.92773 0.853119L8.40913 8.49993H0.400646V16.4999H8.40913Z" fill="white"/>
<path d="M22.8027 8.09824L38.0012 -1.90039" stroke="#DB1F35" stroke-width="0.666667" stroke-linecap="round"/>
<path d="M24.416 16.9367L38.0406 26.1201" stroke="#DB1F35" stroke-width="0.666667" stroke-linecap="round"/>
<path d="M10.0065 8.07285L-4.20508 -1.50488" stroke="#DB1F35" stroke-width="0.666667" stroke-linecap="round"/>
<path d="M11.5479 16.8258L-4.20508 27.2725" stroke="#DB1F35" stroke-width="0.666667" stroke-linecap="round"/>
<path fill-rule="evenodd" clip-rule="evenodd" d="M0.400391 14.9H14.8004V24.5H19.6004V14.9H34.0004V10.1H19.6004V0.5H14.8004V10.1H0.400391V14.9Z" fill="#E6273E"/>
</g>
</svg>
