<svg width="228" height="51" viewBox="0 0 228 51" fill="none" xmlns="http://www.w3.org/2000/svg">
<g clip-path="url(#clip0_1423_831)">
<path d="M117.54 10.9298C117.909 10.552 118.331 10.2551 118.825 10.0572C119.32 9.85029 119.841 9.75133 120.407 9.75133C121.018 9.75133 121.593 9.88627 122.133 10.1472C122.672 10.4081 123.166 10.7859 123.624 11.2897L125.467 9.22954C125.089 8.77073 124.631 8.3659 124.101 8.02404C123.571 7.67318 122.986 7.41229 122.357 7.24136C121.719 7.06144 121.081 6.98047 120.425 6.98047C119.419 6.98047 118.484 7.16039 117.63 7.51125C116.776 7.86211 116.021 8.3659 115.383 9.00464C114.745 9.64337 114.242 10.3991 113.892 11.2537C113.541 12.1084 113.361 13.044 113.361 14.0516C113.361 15.0861 113.532 16.0397 113.865 16.9034C114.197 17.767 114.673 18.5137 115.294 19.1525C115.914 19.7912 116.651 20.277 117.495 20.6278C118.34 20.9787 119.266 21.1496 120.272 21.1496C120.937 21.1496 121.602 21.0687 122.249 20.9067C122.906 20.7448 123.499 20.5199 124.038 20.232C124.577 19.9441 124.99 19.6203 125.296 19.2694C125.296 19.2604 123.867 16.9754 123.867 16.9754C123.607 17.2542 123.301 17.4971 122.968 17.7041C122.627 17.911 122.267 18.0729 121.881 18.1988C121.495 18.3158 121.09 18.3788 120.677 18.3788C120.039 18.3788 119.455 18.2798 118.924 18.0729C118.394 17.866 117.936 17.5781 117.558 17.2093C117.181 16.8404 116.884 16.3816 116.687 15.8508C116.48 15.32 116.381 14.7263 116.381 14.0695C116.381 13.4308 116.489 12.8461 116.696 12.3243C116.884 11.7575 117.172 11.3077 117.54 10.9298Z" fill="#1A1A1A"/>
<path d="M113.361 33.5287H117.325V44.6301H120.272V33.5287H124.388V30.8838H113.361V33.5287Z" fill="#1A1A1A"/>
<path d="M128.981 34.2402H126.195V44.631H128.981V34.2402Z" fill="#1A1A1A"/>
<path d="M127.57 33.0167C128.483 33.0167 129.223 32.2756 129.223 31.3614C129.223 30.4472 128.483 29.7061 127.57 29.7061C126.656 29.7061 125.916 30.4472 125.916 31.3614C125.916 32.2756 126.656 33.0167 127.57 33.0167Z" fill="#1A1A1A"/>
<path d="M139.092 29.9666H141.123L144.951 26.584H141.078L139.092 29.9666Z" fill="#1A1A1A"/>
<path d="M150.154 34.2394V36.7314H148.015V44.6301H145.229V36.7314H143.279V34.2394H145.229V31.6035H148.015V34.2394H150.154Z" fill="#1A1A1A"/>
<path d="M136.423 31.5593L138.939 32.7918L139.802 31.8652L137.349 29.7061H135.506L133.008 31.8652L133.898 32.7918L136.423 31.5593Z" fill="#1A1A1A"/>
<path d="M139.415 41.3835C139.056 41.7344 138.66 41.9953 138.247 42.1572C138.04 42.2382 137.806 42.3012 137.564 42.3371C137.321 42.3731 137.06 42.3911 136.791 42.3911C136.692 42.3911 136.602 42.3911 136.503 42.3821C136.422 42.3731 136.341 42.3731 136.261 42.3551C135.793 42.3102 135.398 42.1932 135.047 42.0043C134.679 41.7974 134.382 41.5185 134.167 41.1586C134.158 41.1496 134.149 41.1316 134.14 41.1226C134.086 41.0327 134.041 40.9337 133.996 40.8348L136.8 40.295L141.734 39.3414C141.734 38.6307 141.626 37.9829 141.428 37.3982C141.392 37.3082 141.356 37.2182 141.32 37.1373C141.284 37.0473 141.239 36.9574 141.194 36.8674C141.141 36.7504 141.069 36.6335 140.997 36.5165C140.934 36.4176 140.871 36.3186 140.808 36.2287C140.673 36.0397 140.529 35.8688 140.377 35.6979C140.305 35.6169 140.233 35.5449 140.161 35.473C140.143 35.455 140.116 35.437 140.107 35.419C140.044 35.356 139.963 35.302 139.891 35.2391C139.801 35.1671 139.712 35.1041 139.631 35.0411C139.532 34.9692 139.442 34.9062 139.343 34.8522C139.253 34.7982 139.154 34.7353 139.047 34.6903C139.038 34.6813 139.029 34.6813 139.02 34.6723C138.921 34.6273 138.84 34.5733 138.741 34.5463C138.633 34.5014 138.525 34.4474 138.426 34.4114C138.319 34.3664 138.211 34.3304 138.094 34.3034C137.537 34.1415 136.953 34.0605 136.324 34.0605C135.802 34.0605 135.299 34.1145 134.823 34.2315C134.337 34.3394 133.888 34.5194 133.457 34.7443C132.603 35.2121 131.938 35.8508 131.453 36.6695C130.958 37.4971 130.725 38.4148 130.725 39.4493C130.725 40.4839 130.967 41.4105 131.462 42.2292C131.956 43.0388 132.657 43.6866 133.564 44.1454C133.861 44.2893 134.158 44.4153 134.481 44.5142C134.787 44.6222 135.11 44.6942 135.452 44.7391C135.847 44.8021 136.27 44.8381 136.701 44.8381C137.051 44.8381 137.393 44.8201 137.716 44.7841C138.067 44.7391 138.391 44.6762 138.705 44.5862C138.714 44.5862 138.714 44.5862 138.714 44.5862C138.831 44.5502 138.939 44.5142 139.056 44.4783C139.828 44.1904 140.484 43.7496 141.015 43.1558L139.406 41.4105L139.415 41.3835ZM133.789 38.5137C133.789 38.4867 133.798 38.4687 133.807 38.4417C133.816 38.3698 133.834 38.2888 133.852 38.2258C133.978 37.767 134.194 37.3892 134.49 37.0833C134.535 37.0293 134.598 36.9753 134.643 36.9304C134.652 36.9304 134.652 36.9214 134.661 36.9214C134.67 36.9214 134.67 36.9214 134.67 36.9124C134.733 36.8584 134.796 36.8044 134.877 36.7594C134.922 36.7324 134.975 36.6965 135.02 36.6695C135.083 36.6245 135.146 36.5975 135.209 36.5705C135.281 36.5345 135.353 36.5075 135.425 36.4895C135.488 36.4626 135.569 36.4446 135.64 36.4266C135.721 36.4086 135.793 36.3906 135.874 36.3816C135.955 36.3636 136.036 36.3636 136.117 36.3546C136.198 36.3456 136.27 36.3456 136.35 36.3456H136.395C136.476 36.3456 136.548 36.3546 136.62 36.3546C136.683 36.3636 136.746 36.3636 136.809 36.3726C136.872 36.3816 136.944 36.3906 137.007 36.4086C137.123 36.4356 137.222 36.4626 137.33 36.4985C137.402 36.5255 137.465 36.5435 137.528 36.5795C137.582 36.6065 137.645 36.6335 137.699 36.6695C137.788 36.7145 137.869 36.7684 137.95 36.8314C138.121 36.9484 138.256 37.0833 138.382 37.2452C138.588 37.4971 138.732 37.794 138.822 38.1359L136.836 38.5227L133.726 39.1255C133.726 38.9096 133.744 38.7026 133.789 38.5137Z" fill="#1A1A1A"/>
<path d="M132.962 12.9098C133.222 13.0537 133.42 13.2787 133.546 13.5935C133.68 13.9084 133.743 14.3042 133.743 14.772V20.9165H136.529V14.5741C136.529 13.6295 136.395 12.8468 136.125 12.2081C135.855 11.5694 135.46 11.1015 134.93 10.7867C134.399 10.4718 133.743 10.3189 132.962 10.3189C132.395 10.3189 131.856 10.4358 131.335 10.6697C130.814 10.9036 130.364 11.2185 129.978 11.6053C129.897 11.6863 129.834 11.7673 129.762 11.8482V6.39648H126.994V20.9255H127.605C127.839 20.9255 128.1 20.9255 128.387 20.9255H129.78V14.7001C129.78 14.4122 129.834 14.1513 129.933 13.9174C130.041 13.6835 130.194 13.4766 130.391 13.2876C130.598 13.1077 130.823 12.9638 131.092 12.8648C131.353 12.7659 131.64 12.7209 131.955 12.7209C132.368 12.7029 132.701 12.7659 132.962 12.9098Z" fill="#1A1A1A"/>
<path d="M140.017 20.619C140.565 20.9519 141.212 21.1228 141.958 21.1228C142.542 21.1228 143.099 21.0149 143.603 20.79C144.115 20.5651 144.555 20.2592 144.924 19.8633C145.041 19.7374 145.139 19.6114 145.238 19.4855L145.292 20.9249H147.943V10.5342H145.157V16.7416C145.157 17.0385 145.104 17.3174 145.005 17.5693C144.897 17.8212 144.753 18.0371 144.573 18.217C144.394 18.3969 144.169 18.5409 143.917 18.6398C143.666 18.7388 143.378 18.7838 143.063 18.7838C142.452 18.7838 141.967 18.5769 141.626 18.163C141.275 17.7492 141.104 17.1824 141.104 16.4447V10.5342H138.318V16.9575C138.318 17.8212 138.462 18.5679 138.759 19.1886C139.046 19.8094 139.469 20.2862 140.017 20.619Z" fill="#1A1A1A"/>
<path d="M176.109 14.6993C176.109 14.4115 176.163 14.1506 176.262 13.9167C176.37 13.6828 176.523 13.4759 176.721 13.2869C176.927 13.107 177.152 12.9631 177.421 12.8641C177.682 12.7651 177.97 12.7202 178.284 12.7202C178.689 12.7112 179.021 12.7741 179.282 12.9181C179.542 13.062 179.74 13.2869 179.866 13.6018C180.001 13.9167 180.064 14.3125 180.064 14.7803V20.9248H182.85V14.5824C182.85 13.6378 182.715 12.8551 182.445 12.2164C182.176 11.5776 181.78 11.1098 181.25 10.795C180.72 10.4801 180.064 10.3271 179.282 10.3271C178.716 10.3271 178.176 10.4441 177.655 10.678C177.134 10.9119 176.685 11.2268 176.298 11.6136C176.208 11.7036 176.127 11.7935 176.055 11.8925L176.002 10.5431H173.314V20.9338H173.926C174.159 20.9338 174.42 20.9338 174.707 20.9338H176.1V14.6993H176.109Z" fill="#1A1A1A"/>
<path d="M166.466 7.85324L168.973 9.08573L169.836 8.15911L167.391 6H165.54L163.051 8.15911L163.932 9.08573L166.466 7.85324Z" fill="#1A1A1A"/>
<path d="M171.192 3.40028C170.797 3.07641 170.267 2.89648 169.593 2.89648C168.802 2.89648 168.146 3.06741 167.598 3.40927L168.236 4.5608C168.595 4.37188 168.946 4.26392 169.287 4.26392C169.53 4.26392 169.719 4.33589 169.871 4.45284C170.024 4.58779 170.096 4.75872 170.096 4.96563C170.096 5.34348 169.799 5.67634 169.215 5.96422L170.132 6.86385C170.617 6.65694 171.031 6.37805 171.336 6.0182C171.642 5.65835 171.804 5.22653 171.804 4.77671C171.795 4.20994 171.588 3.74214 171.192 3.40028Z" fill="#1A1A1A"/>
<path d="M169.458 17.6777C169.099 18.0285 168.703 18.2894 168.29 18.4514C168.083 18.5323 167.849 18.5953 167.607 18.6313C167.364 18.6673 167.103 18.6853 166.834 18.6853C166.735 18.6853 166.645 18.6853 166.546 18.6763C166.465 18.6673 166.384 18.6673 166.304 18.6493C165.836 18.6043 165.441 18.4874 165.09 18.2984C164.722 18.0915 164.425 17.8126 164.21 17.4528C164.201 17.4438 164.192 17.4258 164.183 17.4168C164.129 17.3268 164.084 17.2279 164.039 17.1289L166.843 16.5891L171.777 15.6355C171.777 14.9248 171.669 14.2771 171.471 13.6923C171.435 13.6024 171.399 13.5124 171.363 13.4314C171.327 13.3415 171.291 13.2515 171.237 13.1615C171.183 13.0446 171.112 12.9276 171.04 12.8107C170.977 12.7117 170.914 12.6128 170.851 12.5138C170.716 12.3249 170.572 12.154 170.42 11.983C170.348 11.9021 170.276 11.8301 170.204 11.7581C170.186 11.7401 170.159 11.7221 170.15 11.7041C170.087 11.6412 170.006 11.5872 169.934 11.5242C169.844 11.4612 169.764 11.3893 169.674 11.3263C169.575 11.2633 169.485 11.1914 169.386 11.1374C169.287 11.0834 169.188 11.0204 169.09 10.9754C169.081 10.9664 169.072 10.9664 169.063 10.9575C168.964 10.9125 168.883 10.8585 168.784 10.8315C168.676 10.7865 168.568 10.7325 168.469 10.6966C168.362 10.6516 168.254 10.6156 168.137 10.5886C167.58 10.4267 166.996 10.3457 166.366 10.3457C165.845 10.3457 165.342 10.3997 164.866 10.5166C164.38 10.6246 163.931 10.8045 163.5 11.0294C162.646 11.4972 161.981 12.136 161.496 12.9546C161.001 13.7823 160.768 14.7089 160.768 15.7345C160.768 16.7691 161.01 17.6957 161.505 18.5143C161.999 19.324 162.7 19.9717 163.607 20.4306C163.904 20.5745 164.201 20.7004 164.524 20.7994C164.83 20.9074 165.153 20.9793 165.495 21.0243C165.89 21.0873 166.313 21.1233 166.744 21.1233C167.094 21.1233 167.436 21.1053 167.759 21.0693C168.11 21.0243 168.433 20.9613 168.748 20.8714C168.757 20.8714 168.757 20.8714 168.757 20.8714C168.874 20.8354 168.982 20.7994 169.099 20.7634C169.871 20.4755 170.527 20.0437 171.058 19.441L169.449 17.6957L169.458 17.6777ZM163.823 14.8169C163.823 14.7899 163.832 14.7719 163.841 14.7449C163.85 14.6729 163.868 14.592 163.886 14.529C164.012 14.0792 164.228 13.6923 164.524 13.3865C164.569 13.3325 164.632 13.2785 164.677 13.2335C164.686 13.2335 164.686 13.2245 164.695 13.2245C164.704 13.2245 164.704 13.2245 164.704 13.2155C164.767 13.1615 164.83 13.1076 164.911 13.0626C164.956 13.0356 165.009 12.9996 165.054 12.9726C165.117 12.9276 165.18 12.9007 165.243 12.8737C165.315 12.8377 165.387 12.8107 165.459 12.7927C165.531 12.7657 165.603 12.7477 165.674 12.7297C165.755 12.7117 165.827 12.6937 165.908 12.6847C165.989 12.6667 166.07 12.6667 166.151 12.6578C166.232 12.6488 166.304 12.6488 166.384 12.6488H166.429C166.51 12.6488 166.582 12.6578 166.654 12.6578C166.717 12.6667 166.771 12.6667 166.834 12.6757C166.897 12.6847 166.969 12.6937 167.032 12.7117C167.148 12.7297 167.247 12.7657 167.355 12.8017C167.427 12.8287 167.49 12.8467 167.553 12.8827C167.607 12.9096 167.67 12.9366 167.724 12.9726C167.813 13.0176 167.894 13.0716 167.975 13.1346C168.137 13.2515 168.281 13.3865 168.407 13.5484C168.613 13.8003 168.757 14.0972 168.847 14.439L166.861 14.8259L163.751 15.4286C163.769 15.2037 163.787 15.0058 163.823 14.8169Z" fill="#1A1A1A"/>
<path d="M159.268 10.5342V20.0343C159.259 21.7256 158.827 22.994 157.965 23.8217C157.56 24.2085 157.075 24.5054 156.5 24.7123C155.844 24.9552 155.071 25.0722 154.19 25.0722C153.813 25.0722 153.444 25.0542 153.094 25.0092C152.617 24.9552 152.15 24.8743 151.701 24.7483C151 24.5504 150.388 24.2715 149.894 23.9117C149.84 23.8757 149.786 23.8307 149.732 23.7857L150.811 21.8425C151.206 22.1664 151.683 22.4183 152.249 22.6072C152.455 22.6792 152.671 22.7332 152.878 22.7691C153.237 22.8501 153.606 22.8861 153.974 22.8861C154.873 22.8861 155.538 22.6792 155.951 22.2564C156.365 21.8425 156.518 21.2038 156.518 20.3581V19.6114C156.455 19.6924 156.383 19.7734 156.302 19.8543C155.924 20.2412 155.466 20.5471 154.945 20.79C154.424 21.0239 153.875 21.1408 153.318 21.1408C152.536 21.1408 151.88 20.9789 151.35 20.664C150.82 20.3491 150.424 19.8723 150.155 19.2426C149.885 18.6039 149.75 17.8212 149.75 16.8766V10.5342H152.536V16.6787C152.536 17.1465 152.599 17.5423 152.734 17.8572C152.869 18.172 153.058 18.3969 153.318 18.5409C153.579 18.6848 153.911 18.7478 154.316 18.7388C154.63 18.7388 154.918 18.6848 155.179 18.5949C155.439 18.4959 155.673 18.352 155.88 18.172C156.086 17.9831 156.23 17.7762 156.338 17.5423C156.446 17.3084 156.491 17.0475 156.491 16.7596V10.5342H159.268Z" fill="#1A1A1A"/>
<path d="M167.984 30.8838H164.39L158.782 36.5425V30.8838H155.834V44.6301H158.782V39.8711L160.148 38.5306L164.74 44.6301H168.254L162.089 36.6414L167.984 30.8838Z" fill="#1A1A1A"/>
<path d="M201.524 34.537C200.993 34.2131 200.319 34.0422 199.511 34.0422C199.169 34.0422 198.828 34.0962 198.468 34.1951C198.118 34.3031 197.776 34.447 197.444 34.636C197.12 34.8249 196.824 35.0498 196.563 35.3107C196.347 35.5266 196.167 35.7605 196.015 36.0034C195.88 35.6525 195.709 35.3467 195.502 35.0948C195.206 34.7259 194.837 34.456 194.415 34.2851C193.993 34.1142 193.498 34.0332 192.95 34.0332C192.6 34.0332 192.24 34.0962 191.881 34.2131C191.521 34.3301 191.189 34.492 190.874 34.6809C190.56 34.8789 190.281 35.1128 190.038 35.4006C189.975 35.4726 189.93 35.5536 189.877 35.6255L189.832 34.2311H187.145V44.6218H189.948V38.4324C189.948 38.1445 190.002 37.8836 190.101 37.6407C190.209 37.3978 190.353 37.1909 190.533 37.011C190.712 36.831 190.937 36.6961 191.198 36.5971C191.458 36.4982 191.737 36.4532 192.024 36.4532C192.573 36.4532 192.995 36.6331 193.292 36.984C193.588 37.3348 193.732 37.8386 193.732 38.4954V44.6218H196.518V38.4324C196.518 38.1445 196.572 37.8836 196.671 37.6497C196.779 37.4158 196.922 37.2089 197.102 37.02C197.282 36.84 197.507 36.6961 197.767 36.5971C198.028 36.4982 198.306 36.4532 198.612 36.4532C199.187 36.4532 199.618 36.6241 199.897 36.966C200.176 37.3079 200.319 37.8296 200.319 38.5403V44.6308H203.105V38.3424C203.105 37.3978 202.971 36.6151 202.701 35.9764C202.449 35.3377 202.054 34.8609 201.524 34.537Z" fill="#1A1A1A"/>
<path d="M180.27 48.9219C181.124 48.9219 181.816 48.2291 181.816 47.3745C181.816 46.5199 181.124 45.8271 180.27 45.8271C179.417 45.8271 178.725 46.5199 178.725 47.3745C178.725 48.2291 179.417 48.9219 180.27 48.9219Z" fill="#1A1A1A"/>
<path d="M180.289 31.3611L182.805 32.5935L183.668 31.6669L181.215 29.5078H179.372L176.883 31.6669L177.764 32.5935L180.289 31.3611Z" fill="#1A1A1A"/>
<path d="M183.29 41.3736C182.93 41.7244 182.535 41.9853 182.121 42.1472C181.915 42.2282 181.681 42.2912 181.447 42.3362C181.205 42.3721 180.944 42.3901 180.674 42.3901C180.576 42.3901 180.477 42.3901 180.387 42.3811C180.306 42.3721 180.225 42.3721 180.144 42.3542C179.677 42.3092 179.281 42.1922 178.931 42.0033C178.562 41.7964 178.266 41.5175 178.059 41.1576C178.05 41.1487 178.041 41.1307 178.032 41.1217C177.978 41.0317 177.933 40.9327 177.888 40.8338L180.692 40.294L185.626 39.3404C185.626 38.6297 185.518 37.982 185.321 37.3972C185.294 37.2982 185.258 37.2173 185.213 37.1363C185.177 37.0463 185.132 36.9474 185.087 36.8664C185.033 36.7495 184.961 36.6325 184.898 36.5156C184.835 36.4166 184.772 36.3176 184.71 36.2187C184.575 36.0298 184.431 35.8588 184.287 35.6969C184.215 35.6159 184.143 35.544 184.072 35.472C184.045 35.454 184.027 35.445 184.018 35.418C183.946 35.355 183.874 35.3011 183.802 35.2381C183.712 35.1661 183.622 35.1031 183.532 35.0402C183.442 34.9682 183.344 34.9052 183.245 34.8512C183.146 34.7973 183.047 34.7343 182.948 34.6893C182.939 34.6803 182.93 34.6803 182.912 34.6713C182.813 34.6263 182.732 34.5724 182.634 34.5364C182.526 34.4914 182.418 34.4374 182.319 34.4104C182.211 34.3654 182.103 34.3295 181.987 34.3025C181.438 34.1405 180.845 34.0596 180.216 34.0596C179.695 34.0596 179.192 34.1135 178.715 34.2305C178.23 34.3385 177.781 34.5184 177.349 34.7523C176.495 35.2201 175.83 35.8588 175.345 36.6775C174.851 37.5052 174.617 38.4228 174.617 39.4573C174.617 40.4919 174.86 41.4185 175.354 42.2372C175.848 43.0469 176.549 43.6946 177.457 44.1534C177.754 44.2974 178.05 44.4233 178.374 44.5223C178.679 44.6302 179.003 44.7022 179.344 44.7472C179.74 44.8101 180.153 44.8461 180.594 44.8461C180.944 44.8461 181.286 44.8281 181.609 44.7922C181.96 44.7472 182.292 44.6842 182.598 44.5942C182.607 44.5942 182.607 44.5942 182.607 44.5942C182.723 44.5582 182.84 44.5223 182.948 44.4863C183.73 44.1984 184.377 43.7576 184.907 43.1638L183.299 41.4185L183.29 41.3736ZM177.655 38.5127C177.655 38.4857 177.664 38.4678 177.673 38.4408C177.682 38.3688 177.7 38.2878 177.718 38.2249C177.844 37.766 178.059 37.3882 178.356 37.0823C178.401 37.0283 178.464 36.9744 178.509 36.9294C178.518 36.9294 178.518 36.9204 178.527 36.9204C178.536 36.9204 178.536 36.9204 178.536 36.9114C178.598 36.8574 178.67 36.8034 178.742 36.7585C178.787 36.7225 178.841 36.6955 178.886 36.6685C178.949 36.6235 179.012 36.5965 179.084 36.5695C179.147 36.5336 179.228 36.5066 179.299 36.4886C179.371 36.4616 179.443 36.4436 179.515 36.4256C179.596 36.4076 179.668 36.3896 179.749 36.3806C179.83 36.3626 179.911 36.3626 179.991 36.3536C180.072 36.3446 180.144 36.3446 180.225 36.3446H180.27C180.351 36.3446 180.423 36.3536 180.495 36.3536C180.558 36.3626 180.612 36.3626 180.674 36.3716C180.737 36.3806 180.809 36.3896 180.872 36.4076C180.989 36.4256 181.088 36.4616 181.196 36.4976C181.268 36.5246 181.33 36.5425 181.393 36.5785C181.447 36.6055 181.51 36.6325 181.564 36.6685C181.654 36.7135 181.735 36.7675 181.816 36.8304C181.978 36.9474 182.121 37.0823 182.247 37.2443C182.454 37.4962 182.598 37.793 182.688 38.1349L180.701 38.5217L177.592 39.1245C177.601 38.9086 177.619 38.7017 177.655 38.5127Z" fill="#1A1A1A"/>
<path d="M172.847 34.2402H170.061V44.631H172.847V34.2402Z" fill="#1A1A1A"/>
<path d="M171.435 33.0167C172.348 33.0167 173.088 32.2756 173.088 31.3614C173.088 30.4472 172.348 29.7061 171.435 29.7061C170.522 29.7061 169.781 30.4472 169.781 31.3614C169.781 32.2756 170.522 33.0167 171.435 33.0167Z" fill="#1A1A1A"/>
<path d="M192.51 20.9251H195.449V9.83262H199.574V7.17871H188.547V9.83262H192.51V20.9251Z" fill="#1A1A1A"/>
<path d="M227.596 12.2164C227.326 11.5776 226.931 11.1098 226.4 10.795C225.87 10.4801 225.214 10.3271 224.432 10.3271C223.866 10.3271 223.327 10.4441 222.806 10.678C222.284 10.9119 221.835 11.2268 221.449 11.6136C221.359 11.7036 221.278 11.7935 221.206 11.8925L221.152 10.5431H218.465V20.9338H219.076C219.31 20.9338 219.57 20.9338 219.858 20.9338H221.251V14.7083C221.251 14.4205 221.305 14.1596 221.404 13.9257C221.511 13.6918 221.664 13.4848 221.862 13.2959C222.069 13.116 222.293 12.9721 222.563 12.8731C222.824 12.7741 223.111 12.7292 223.426 12.7292C223.83 12.7202 224.163 12.7831 224.423 12.9271C224.684 13.071 224.882 13.2959 225.007 13.6108C225.142 13.9257 225.205 14.3215 225.205 14.7893V20.9338H227.991V14.5914C228 13.6378 227.865 12.8461 227.596 12.2164Z" fill="#1A1A1A"/>
<path d="M214.941 2.89648H211.076L214.905 6.27909H216.936L214.941 2.89648Z" fill="#1A1A1A"/>
<path d="M211.606 7.85324L214.114 9.08573L214.977 8.15911L212.532 6H210.681L208.191 8.15911L209.072 9.08573L211.606 7.85324Z" fill="#1A1A1A"/>
<path d="M214.6 17.6777C214.24 18.0285 213.845 18.2894 213.431 18.4514C213.225 18.5323 212.991 18.5953 212.757 18.6313C212.515 18.6673 212.254 18.6853 211.985 18.6853C211.886 18.6853 211.787 18.6853 211.697 18.6763C211.616 18.6673 211.535 18.6673 211.454 18.6493C210.987 18.6043 210.592 18.4874 210.241 18.2984C209.873 18.0915 209.576 17.8126 209.36 17.4528C209.351 17.4438 209.342 17.4258 209.333 17.4168C209.279 17.3268 209.235 17.2279 209.19 17.1289L211.994 16.5891L216.927 15.6355C216.927 14.9248 216.82 14.2771 216.622 13.6923C216.586 13.6024 216.55 13.5124 216.514 13.4314C216.478 13.3415 216.433 13.2515 216.388 13.1615C216.334 13.0446 216.262 12.9276 216.19 12.8107C216.128 12.7117 216.065 12.6128 216.002 12.5138C215.867 12.3249 215.723 12.154 215.57 11.983C215.498 11.9021 215.427 11.8301 215.355 11.7581C215.337 11.7401 215.31 11.7221 215.301 11.7041C215.238 11.6412 215.157 11.5872 215.085 11.5242C214.995 11.4612 214.905 11.3893 214.815 11.3263C214.717 11.2633 214.627 11.1914 214.528 11.1374C214.429 11.0834 214.33 11.0204 214.231 10.9754C214.222 10.9664 214.204 10.9664 214.195 10.9575C214.097 10.9125 214.016 10.8585 213.917 10.8315C213.809 10.7865 213.701 10.7325 213.602 10.6966C213.494 10.6516 213.387 10.6156 213.27 10.5886C212.713 10.4267 212.128 10.3457 211.499 10.3457C210.978 10.3457 210.475 10.3997 209.998 10.5166C209.513 10.6246 209.064 10.8045 208.632 11.0294C207.779 11.4972 207.114 12.136 206.628 12.9546C206.134 13.7823 205.9 14.7089 205.9 15.7345C205.9 16.7691 206.143 17.6957 206.637 18.5143C207.132 19.324 207.833 19.9717 208.74 20.4306C209.037 20.5745 209.333 20.7004 209.657 20.7994C209.963 20.9074 210.286 20.9793 210.628 21.0243C211.023 21.0873 211.436 21.1233 211.877 21.1233C212.227 21.1233 212.569 21.1053 212.892 21.0693C213.243 21.0243 213.566 20.9613 213.881 20.8714C213.89 20.8714 213.89 20.8714 213.89 20.8714C214.007 20.8354 214.115 20.7994 214.231 20.7634C215.004 20.4755 215.66 20.0437 216.19 19.441L214.582 17.6957L214.6 17.6777ZM208.965 14.8169C208.965 14.7899 208.974 14.7719 208.983 14.7449C208.992 14.6729 209.01 14.592 209.028 14.529C209.154 14.0792 209.369 13.6923 209.666 13.3865C209.711 13.3325 209.774 13.2785 209.819 13.2335C209.828 13.2335 209.828 13.2245 209.837 13.2245C209.846 13.2245 209.846 13.2245 209.846 13.2155C209.909 13.1615 209.98 13.1076 210.052 13.0626C210.097 13.0356 210.151 12.9996 210.196 12.9726C210.259 12.9276 210.322 12.9007 210.385 12.8737C210.457 12.8377 210.529 12.8107 210.601 12.7927C210.672 12.7657 210.744 12.7477 210.816 12.7297C210.897 12.7117 210.969 12.6937 211.05 12.6847C211.131 12.6667 211.212 12.6667 211.293 12.6578C211.373 12.6488 211.445 12.6488 211.526 12.6488H211.571C211.652 12.6488 211.724 12.6578 211.796 12.6578C211.859 12.6667 211.913 12.6667 211.976 12.6757C212.038 12.6847 212.11 12.6937 212.173 12.7117C212.29 12.7297 212.389 12.7657 212.497 12.8017C212.569 12.8287 212.632 12.8467 212.695 12.8827C212.748 12.9096 212.811 12.9366 212.865 12.9726C212.955 13.0176 213.036 13.0716 213.117 13.1346C213.279 13.2515 213.422 13.3865 213.548 13.5484C213.755 13.8003 213.899 14.0972 213.989 14.439L212.003 14.8259L208.893 15.4286C208.911 15.2037 208.938 15.0058 208.965 14.8169Z" fill="#1A1A1A"/>
<path d="M204.167 10.5342H201.381V20.9249H204.167V10.5342Z" fill="#1A1A1A"/>
<path d="M202.755 9.31064C203.668 9.31064 204.409 8.56953 204.409 7.65532C204.409 6.74111 203.668 6 202.755 6C201.842 6 201.102 6.74111 201.102 7.65532C201.102 8.56953 201.842 9.31064 202.755 9.31064Z" fill="#1A1A1A"/>
<path d="M54.7672 51.009C68.8384 51.009 80.2453 39.5902 80.2453 25.5045C80.2453 11.4188 68.8384 0 54.7672 0C40.696 0 29.2891 11.4188 29.2891 25.5045C29.2891 39.5902 40.696 51.009 54.7672 51.009Z" fill="#FFD530"/>
<path d="M12.7346 51.009C19.7677 51.009 25.4691 39.5902 25.4691 25.5045C25.4691 11.4188 19.7677 0 12.7346 0C5.70146 0 0 11.4188 0 25.5045C0 39.5902 5.70146 51.009 12.7346 51.009Z" fill="#FFE293"/>
<path d="M84.0645 25.5045C84.0645 39.5927 92.0449 51.009 101.895 51.009V0C92.0539 0 84.0645 11.4163 84.0645 25.5045Z" fill="#FFE075"/>
</g>
<defs>
<clipPath id="clip0_1423_831">
<rect width="228" height="51" fill="white"/>
</clipPath>
</defs>
</svg>
