<svg width="48" height="48" viewBox="0 0 48 48" fill="none" xmlns="http://www.w3.org/2000/svg">
<path d="M15.5625 18.375C15.5625 23.0274 19.3476 26.8125 24 26.8125C28.6524 26.8125 32.4375 23.0274 32.4375 18.375C32.4375 13.7226 28.6524 9.9375 24 9.9375C19.3476 9.9375 15.5625 13.7226 15.5625 18.375ZM30.5625 18.375C30.5625 21.9936 27.6186 24.9375 24 24.9375C20.3814 24.9375 17.4375 21.9936 17.4375 18.375C17.4375 14.7564 20.3814 11.8125 24 11.8125C27.6186 11.8125 30.5625 14.7564 30.5625 18.375Z" fill="black"/>
<path d="M24 48C37.3035 48 48 37.2256 48 24C48 19.5967 46.7994 15.2921 44.5283 11.5517C44.2597 11.1092 43.6832 10.9683 43.2404 11.2369C42.7978 11.5057 42.6569 12.0822 42.9257 12.5248C45.0187 15.9719 46.125 19.94 46.125 24C46.125 30.4151 43.4277 36.3653 38.6741 40.564C37.227 33.7382 31.1745 28.6875 24 28.6875C16.8255 28.6875 10.7723 33.7387 9.32672 40.5649C4.57256 36.3656 1.875 30.4152 1.875 24C1.875 11.8002 11.8002 1.875 24 1.875C28.9677 1.875 33.6592 3.47953 37.5671 6.51525C37.976 6.83288 38.565 6.75881 38.8826 6.34997C39.2002 5.94113 39.1263 5.35209 38.7173 5.03447C34.4774 1.74084 29.3882 0 24 0C17.5841 0 11.5558 2.49525 7.02534 7.026C2.49497 11.5566 0 17.5847 0 24C0 37.259 10.7305 48 24 48V48ZM24 30.5625C30.6278 30.5625 36.1295 35.4037 37.0052 41.9069C33.2125 44.6681 28.7277 46.125 24 46.125C19.2728 46.125 14.7885 44.6679 10.9958 41.9066C11.8703 35.4036 17.3714 30.5625 24 30.5625V30.5625Z" fill="black"/>
</svg>
