<svg width="63" height="64" viewBox="0 0 63 64" fill="none" xmlns="http://www.w3.org/2000/svg">
<path d="M61.2017 30.5823C58.8912 28.6799 55.4794 28.7639 53.2659 30.7815L45.7486 37.6314C44.6784 36.1628 42.983 35.268 41.1059 35.268H33.1481C32.1452 35.268 31.1744 35.0961 30.2632 34.7582C28.016 33.9252 23.5823 32.8011 19.1144 34.6459C18.2638 34.9975 17.4152 35.523 16.5914 36.2104L8.80938 42.7113C7.59976 41.9988 6.01802 42.1506 4.98121 43.1882L1.42499 46.7439C0.192109 47.9758 0.191233 49.9731 1.42499 51.2059L13.2969 63.0783C14.5253 64.3077 16.5278 64.3076 17.7589 63.0783L21.3146 59.5216C22.5451 58.2911 22.5451 56.2901 21.3146 55.0596L21.1889 54.9339L22.0592 54.0634C23.678 52.4452 25.8567 51.5926 28.0497 51.7411C33.608 52.1039 44.7644 51.77 48.7016 47.8299L61.4198 35.1117C62.6963 33.8363 62.5967 31.7327 61.2017 30.5823ZM19.9007 58.1077L16.3453 61.6634C15.8942 62.1136 15.1607 62.1126 14.7104 61.6644L2.83892 49.792C2.83892 49.792 2.83892 49.792 2.83842 49.791C2.38953 49.3441 2.38541 48.6126 2.83892 48.1581L6.39514 44.6024C6.84728 44.1512 7.57725 44.1517 8.02902 44.6024C8.39488 44.9682 20.0966 56.67 19.9005 56.4739C20.3519 56.926 20.3523 57.6549 19.9007 58.1077ZM60.0059 33.6976L47.2877 46.4158C43.8612 49.8424 32.9433 50.0554 28.1797 49.745C25.4179 49.5722 22.6708 50.6238 20.6453 52.6493L19.7749 53.5197C6.86103 40.5136 11.315 44.9995 10.3515 44.0291L17.8732 37.7456C18.5401 37.189 19.2146 36.7681 19.8777 36.4946C23.7132 34.9115 27.5947 35.9018 29.5669 36.6333C30.7017 37.0542 31.9069 37.2681 33.1481 37.2681H41.1059C43.2033 37.2681 44.853 38.9754 44.8366 41.0183C44.8322 41.6452 44.3088 42.156 43.6701 42.156H25.7841C25.2318 42.156 24.784 42.6033 24.784 43.1561C24.784 43.7088 25.2318 44.1561 25.7841 44.1561H43.6698C45.4038 44.1561 46.8242 42.7547 46.8364 41.033C46.8403 40.5164 46.7759 40.0096 46.645 39.5203L54.6126 32.2603C56.0945 30.9078 58.3797 30.8511 59.9301 32.1285C60.4172 32.5288 60.4479 33.2548 60.0059 33.6976Z" fill="#414042"/>
<path d="M31.5039 20.3247C31.8497 20.6606 32.0068 21.145 31.9253 21.6206L31.3965 24.7036C30.9132 27.5212 33.873 29.6954 36.4254 28.3521L39.1858 26.8971C39.614 26.6725 40.1243 26.6725 40.5516 26.8971L43.3022 28.3503C45.8413 29.693 48.8145 27.536 48.3346 24.7095L47.8102 21.6186C47.7302 21.1439 47.8873 20.6615 48.2316 20.3255L50.4586 18.1536C52.512 16.1509 51.3782 12.6606 48.5402 12.2472L45.4522 11.7969C44.9757 11.7266 44.5639 11.4278 44.3511 10.9952L42.9712 8.19719C41.7009 5.62052 38.0312 5.62465 36.761 8.19231L35.3721 10.9982C35.1587 11.4288 34.7475 11.7268 34.272 11.796L31.1889 12.2463C28.3496 12.6598 27.2166 16.1549 29.2744 18.1556L31.5039 20.3247ZM31.478 14.2249L34.5601 13.7747C35.6856 13.6116 36.6593 12.9055 37.1642 11.8849L38.5528 9.07921C39.0904 7.99375 40.6395 7.9925 41.1769 9.08208L42.5568 11.8801C43.0602 12.9025 44.0349 13.6106 45.1634 13.7757L48.2513 14.2259C49.4526 14.403 49.9323 15.8734 49.0619 16.7221L46.8353 18.894C46.0208 19.688 45.6478 20.8316 45.8382 21.9527L46.3626 25.0436C46.5659 26.2429 45.3132 27.1471 44.2366 26.5827L41.4855 25.1295C40.4742 24.5944 39.2652 24.5934 38.253 25.1275L35.4926 26.5826C34.4151 27.1506 33.1621 26.2384 33.3681 25.0415L33.8969 21.9584C34.0898 20.8324 33.7162 19.6858 32.8978 18.891L30.6688 16.7219C29.7966 15.8727 30.2759 14.4018 31.478 14.2249Z" fill="#414042"/>
<path d="M39.8633 3.44056C40.4156 3.44056 40.8634 2.9933 40.8634 2.4405V1.00006C40.8634 0.447262 40.4156 0 39.8633 0C39.311 0 38.8633 0.447262 38.8633 1.00006V2.4405C38.8633 2.9933 39.311 3.44056 39.8633 3.44056Z" fill="#414042"/>
<path d="M31.4639 4.95925C31.7423 5.4424 32.3571 5.59845 32.8297 5.32549C33.3083 5.04915 33.4718 4.43772 33.1955 3.95919L32.4753 2.71206C32.1994 2.23254 31.5866 2.06849 31.1095 2.34582C30.6309 2.62216 30.4674 3.2336 30.7437 3.71212L31.4639 4.95925Z" fill="#414042"/>
<path d="M25.0646 10.1228L26.3117 10.8426C26.791 11.1184 27.4023 10.9536 27.678 10.4763C27.9538 9.9978 27.7898 9.38649 27.3118 9.11003L26.0646 8.39031C25.5846 8.11297 24.9738 8.27903 24.6983 8.75655C24.4225 9.23507 24.5866 9.84638 25.0646 10.1228Z" fill="#414042"/>
<path d="M23.3536 18.5109H24.7935C25.3458 18.5109 25.7936 18.0636 25.7936 17.5108C25.7936 16.958 25.3458 16.5107 24.7935 16.5107H23.3536C22.8013 16.5107 22.3535 16.958 22.3535 17.5108C22.3535 18.0636 22.8013 18.5109 23.3536 18.5109Z" fill="#414042"/>
<path d="M53.9355 17.5118C53.9355 18.0646 54.3833 18.5118 54.9356 18.5118H56.3755C56.9278 18.5118 57.3756 18.0646 57.3756 17.5118C57.3756 16.959 56.9278 16.5117 56.3755 16.5117H54.9356C54.3833 16.5117 53.9355 16.959 53.9355 17.5118Z" fill="#414042"/>
<path d="M53.4162 10.8426L54.6633 10.1228C55.1414 9.84651 55.3054 9.23507 55.0296 8.75655C54.7527 8.27903 54.1418 8.11297 53.6633 8.39031L52.4161 9.11003C51.9381 9.38636 51.7741 9.9978 52.0499 10.4763C52.3269 10.9543 52.9376 11.1181 53.4162 10.8426Z" fill="#414042"/>
<path d="M46.9005 5.32549C47.3739 5.59895 47.9884 5.44165 48.2663 4.95925L48.9865 3.71212C49.2629 3.2336 49.0993 2.62228 48.6208 2.34582C48.1423 2.06849 47.5305 2.23254 47.255 2.71206L46.5348 3.95919C46.2583 4.43784 46.422 5.04915 46.9005 5.32549Z" fill="#414042"/>
</svg>
