<svg width="51" height="64" viewBox="0 0 51 64" fill="none" xmlns="http://www.w3.org/2000/svg">
<path d="M49.7026 12.9582L25.6486 0.141024C25.2918 -0.0494298 24.8641 -0.0467569 24.5099 0.147707L1.12148 12.9649C0.7379 13.1754 0.5 13.5777 0.5 14.0154V30.758C0.514033 44.5208 8.66814 56.9718 21.2782 62.4856L24.5246 63.9003C24.828 64.0327 25.1735 64.0333 25.4775 63.9017L29.1356 62.3219C41.9795 56.9277 50.3355 44.3564 50.3368 30.4259V14.0154C50.3368 13.573 50.0929 13.1661 49.7026 12.9582ZM47.9418 30.4259C47.9391 43.3961 40.1572 55.0994 28.198 60.1187L28.19 60.1227L25.0044 61.498L22.2365 60.2904C10.4985 55.1582 2.90774 43.5692 2.89437 30.758V14.7245L25.0933 2.55812L47.9418 14.7331V30.4259Z" fill="#414042"/>
<path d="M16.2591 29.9813C15.8294 29.4781 15.0736 29.4186 14.5704 29.8483C14.0672 30.2773 14.0078 31.0338 14.4374 31.5363L20.7632 38.944C21.1855 39.4385 21.9253 39.506 22.4292 39.0957L37.1616 27.1098C37.6748 26.6928 37.7524 25.9383 37.3347 25.4251C36.9177 24.9126 36.1632 24.8344 35.65 25.252L21.8251 36.4988L16.2591 29.9813Z" fill="#414042"/>
</svg>
